# ProBuilder 5.0.6
# https://unity3d.com/unity/features/worldbuilding/probuilder
# 25/10/2022 20:07:22

mtllib ./ramp.mtl
o ramp

g ramp
v 5 -1 -5
v -5 -1 -5
v 5 0 -5
v -5 0 -5
v 5 -1 -7
v -5 -1 -7

vt 1 0.56
vt 0 0.56
vt 1 0.66
vt 0 0.66
vt 1 -0.03999996
vt 0 -0.03999996
vt 1 0.16
vt 0 0.16
vt 1.7 0.41
vt 1.5 0.41
vt 1.5 0.51
vt 0.5 0.41
vt 0.3 0.41
vt 0.5 0.51
vt 1 0.3064466
vt 0 0.3064466
vt 0 0.09431452
vt 1 0.09431452

vn 0 0 2
vn 0 -1 0
vn 10 0 0
vn -10 0 0
vn 0 0.7071068 -1.414214

usemtl tiles
f 3/11/3 1/10/3 5/9/3
f 4/14/4 6/13/4 2/12/4
f 4/4/1 2/2/1 1/1/1
f 1/1/1 3/3/1 4/4/1
f 2/8/2 6/6/2 5/5/2
f 5/5/2 1/7/2 2/8/2
f 4/15/5 3/16/5 5/17/5
f 5/17/5 6/18/5 4/15/5

