# ProBuilder 5.0.6
# https://unity3d.com/unity/features/worldbuilding/probuilder
# 25/10/2022 18:50:07

mtllib ./vase.mtl
o vase

g Cylinder
v -0.4934654 0.828229 0.04500198
v -0.5928993 1.328229 0.04500198
v -0.3495197 0.828229 0.3925209
v -0.4198284 1.328229 0.4628296
v -0.002000809 0.828229 0.5364685
v -0.002000809 1.328229 0.6359024
v 0.3455181 0.828229 0.3925209
v 0.4158268 1.328229 0.4628296
v 0.4894638 0.828229 0.04500198
v 0.5888977 1.328229 0.04500198
v 0.3455181 0.828229 -0.3025169
v 0.4158268 1.328229 -0.3728256
v -0.002000809 0.828229 -0.4464645
v -0.002000809 1.328229 -0.5458946
v -0.3495197 0.828229 -0.3025169
v -0.4198284 1.328229 -0.3728256
v -0.7520008 1.828229 0.04500198
v -0.5323309 1.828229 0.575332
v -0.002000776 1.828229 0.795002
v 0.5283293 1.828229 0.575332
v 0.7479992 1.828229 0.04500192
v 0.5283293 1.828229 -0.4853281
v -0.002000818 1.828229 -0.704998
v -0.5323308 1.828229 -0.4853282
v -0.002000809 0.828229 0.04500198
v -0.75 -5.960464E-08 0
v -0.375 -5.960464E-08 0.6495209
v 0.375 -5.960464E-08 0.6495209
v 0.75 -5.960464E-08 0
v 0.375 -5.960464E-08 -0.6495209
v -0.375 -5.960464E-08 -0.6495209
v 0 -5.960464E-08 0
v -0.05728912 0.8312919 0.09922791
v -0.1875 0.2302713 0.3247604
v -0.375 0.2302713 0
v -0.1145782 0.8312919 0
v 0.05728912 0.8312919 0.09922791
v 0.1875 0.2302713 0.3247604
v 0.1145782 0.8312919 0
v 0.375 0.2302713 0
v 0.05728912 0.8312919 -0.09922791
v 0.1875 0.2302713 -0.3247604
v -0.05728912 0.8312919 -0.09922791
v -0.1875 0.2302713 -0.3247604
v -0.7166271 0.1151356 0
v -0.3583145 0.1151356 0.6206207
v 0.3583145 0.1151356 0.6206207
v 0.7166271 0.1151356 0
v 0.3583145 0.1151356 -0.6206207
v -0.3583145 0.1151356 -0.6206207
v -0.622282 1.828229 0.0450058
v -0.4406071 1.828229 0.4836044
v -0.4406071 1.63549 0.4836044
v -0.002002716 1.828229 0.6652832
v -0.002002716 1.63549 0.6652832
v 0.4366016 1.828229 0.4836044
v 0.4366016 1.63549 0.4836044
v 0.6182785 1.828229 0.0450058
v 0.4366016 1.828229 -0.3935966
v 0.6182785 1.63549 0.0450058
v -0.002000809 1.63549 0.04500198
v 0.4366016 1.63549 -0.3935966
v -0.002002716 1.828229 -0.5752754
v -0.002002716 1.63549 -0.5752754
v -0.4406071 1.828229 -0.3935966
v -0.4406071 1.63549 -0.3935966
v -0.622282 1.63549 0.0450058

vt -0.1472631 0.9000903
vt -0.1853145 1.408459
vt 0.2288882 0.9000903
vt 0.2669393 1.408459
vt -0.1727022 0.9042943
vt -0.2107529 1.412663
vt 0.2034498 0.9042943
vt 0.2415016 1.412663
vt -0.2071468 0.904019
vt -0.2451986 1.412388
vt 0.1690052 0.904019
vt 0.2070559 1.412388
vt -0.2304195 0.8994207
vt -0.2684706 1.407789
vt 0.1457317 0.8994207
vt 0.1837831 1.40779
vt -0.2288847 0.8931982
vt -0.2669361 1.401567
vt 0.1472666 0.8931983
vt 0.1853177 1.401567
vt -0.2034483 0.8889918
vt -0.241499 1.39736
vt 0.1727036 0.8889918
vt 0.210754 1.39736
vt -0.1690066 0.8892679
vt -0.207057 1.397636
vt 0.2071453 0.8892679
vt 0.245196 1.397637
vt -0.1457353 0.893865
vt -0.1837864 1.402234
vt 0.230416 0.893865
vt 0.2684674 1.402234
vt -0.1853175 1.433657
vt -0.2462033 1.954815
vt 0.2669362 1.433657
vt 0.3278218 1.954816
vt -0.2107501 1.440221
vt -0.2716351 1.96138
vt 0.2415044 1.440221
vt 0.3023901 1.961379
vt -0.2452013 1.439788
vt -0.306087 1.960946
vt 0.2070531 1.439788
vt 0.2679381 1.960947
vt -0.2684675 1.432614
vt -0.3293531 1.953773
vt 0.1837862 1.432614
vt 0.2446721 1.953773
vt -0.266939 1.422899
vt -0.3278247 1.944058
vt 0.1853148 1.422899
vt 0.2462004 1.944058
vt -0.2415006 1.416336
vt -0.3023868 1.937494
vt 0.2107524 1.416336
vt 0.2716384 1.937495
vt -0.2070554 1.416768
vt -0.2679414 1.937927
vt 0.2451976 1.416768
vt 0.3060836 1.937927
vt -0.1837834 1.423943
vt -0.2446692 1.945101
vt 0.2684703 1.423943
vt 0.3293561 1.945101
vt -0.3495197 0.3925209
vt -0.002000809 0.5364685
vt 0.3455181 0.3925209
vt 0.4894638 0.04500198
vt 0.3455181 -0.3025169
vt -0.002000809 -0.4464645
vt -0.3495197 -0.3025169
vt -0.002000809 0.04500198
vt -0.4934654 0.04500198
vt -0.7520007 0.04500186
vt -0.3770007 0.694521
vt 0.3729991 0.694521
vt 0.7479991 0.04500186
vt 0.3729991 -0.6045172
vt -0.3770007 -0.6045172
vt 0.9375 1.22952
vt 1.125 0.8196799
vt 0.375 0.8196799
vt 0.5625 1.22952
vt 0.1165791 0.04500198
vt 0.05928993 0.1442299
vt -0.05528831 0.1442299
vt -0.1125774 0.04500198
vt -0.05528831 -0.05422592
vt 0.05928993 -0.05422592
vt 1.5 1.192093E-07
vt 0 0
vt 0.1875 0.4098399
vt 1.3125 0.40984
vt 0.7520008 0.04500198
vt 0.622282 0.0450058
vt 0.4406071 0.4836044
vt 0.5323309 0.575332
vt 0.002002716 0.6652832
vt 0.002000776 0.795002
vt -0.4366016 0.4836044
vt -0.5283293 0.575332
vt -0.6182785 0.0450058
vt -0.7479992 0.04500192
vt -0.4366016 -0.3935966
vt -0.5283293 -0.4853281
vt 0.002000809 0.04500198
vt 0.002002716 -0.5752754
vt 0.002000818 -0.704998
vt 0.4406071 -0.3935966
vt 0.5323308 -0.4853282
vt -0.1965538 1.828229
vt 0.2781868 1.828229
vt -0.1965538 1.63549
vt 0.2781868 1.63549
vt -0.2220016 1.828229
vt 0.2527414 1.828229
vt -0.2220016 1.63549
vt 0.2527414 1.63549
vt -0.2564419 1.828229
vt 0.2183011 1.828229
vt -0.2564419 1.63549
vt 0.2183011 1.63549
vt -0.2797168 1.828229
vt 0.195023 1.828229
vt -0.2797168 1.63549
vt 0.195023 1.63549
vt -0.2781776 1.828229
vt 0.1965588 1.828229
vt -0.2781776 1.63549
vt 0.1965588 1.63549
vt -0.2527461 1.828229
vt 0.221997 1.828229
vt -0.2527461 1.63549
vt 0.221997 1.63549
vt -0.2182965 1.828229
vt 0.2564466 1.828229
vt -0.2182965 1.63549
vt 0.2564466 1.63549
vt -0.1950289 1.828229
vt 0.2797082 1.828229
vt -0.1950289 1.63549
vt 0.2797082 1.63549

vn -0.9807939 -0.195047 -1.447551E-06
vn -0.9683407 -0.2496324 -3.536933E-07
vn -0.6935269 -0.195045 0.6935257
vn -0.6847216 -0.2496314 0.6847193
vn -1.238462E-06 -0.1950472 0.9807939
vn 2.652703E-07 -0.2496313 0.9683409
vn 0.6935288 -0.1950448 0.6935238
vn 0.6847218 -0.249631 0.6847193
vn 0.9807939 -0.195047 1.447551E-06
vn 0.9683407 -0.2496324 3.456548E-07
vn 0.6935269 -0.195045 -0.6935257
vn 0.6847197 -0.2496307 -0.6847215
vn -8.202796E-07 -0.1950418 -0.9807949
vn -1.125387E-07 -0.2496308 -0.9683411
vn -0.6935276 -0.1950431 -0.6935255
vn -0.6847196 -0.249632 -0.684721
vn -0.9529198 -0.3032224 4.485586E-07
vn -0.673817 -0.3032224 0.6738151
vn 1.329656E-06 -0.3032199 0.9529206
vn 0.6738156 -0.3032233 0.6738162
vn 0.9529198 -0.3032224 -4.485586E-07
vn 0.6738154 -0.3032241 -0.673816
vn 4.325384E-07 -0.3032249 -0.952919
vn -0.6738154 -0.3032234 -0.6738162
vn 0 -1 0
vn -0.4587839 0.3975818 0.7946358
vn -0.3295933 0.7519807 0.5708707
vn -0.6591863 0.7519796 0
vn -0.917567 0.3975811 0
vn 0.4587839 0.3975818 0.7946358
vn 0.3295933 0.7519807 0.5708707
vn 0.917567 0.3975811 0
vn 0.6591863 0.7519796 0
vn 0.4587839 0.3975818 -0.7946358
vn 0.3295933 0.7519807 -0.5708707
vn -0.4587839 0.3975818 -0.7946358
vn -0.3295933 0.7519807 -0.5708707
vn 0 1 0
vn -0.4802355 0.2783833 0.8317912
vn -0.960468 0.2783903 0
vn -0.7005975 0.7135566 0
vn -0.3503006 0.7135544 0.6067368
vn 0.3503007 0.7135544 0.6067368
vn 0.4802355 0.2783833 0.8317912
vn 0.7005975 0.7135566 0
vn 0.960468 0.2783903 0
vn 0.3503006 0.7135544 -0.6067368
vn 0.4802355 0.2783833 -0.8317912
vn -0.3503007 0.7135544 -0.6067368
vn -0.4802355 0.2783833 -0.8317912
vn -0.9238782 0 0.3826866
vn -0.3826886 0 0.9238774
vn 0.3826886 0 0.9238774
vn 0.9238796 0 0.3826832
vn 0.9238785 0 -0.382686
vn 0.3826886 0 -0.9238774
vn -0.3826886 0 -0.9238774
vn -0.9238771 0 -0.3826895

usemtl Dark_Brown
f 62/104/38 61/106/38 60/102/38
f 64/107/38 61/106/38 62/104/38
f 66/109/38 61/106/38 64/107/38
f 67/95/38 61/106/38 66/109/38
f 53/96/38 61/106/38 67/95/38
f 55/98/38 61/106/38 53/96/38
f 57/100/38 61/106/38 55/98/38
f 60/102/38 61/106/38 57/100/38

usemtl Silver
f 15/71/25 25/72/25 1/73/25
f 13/70/25 25/72/25 15/71/25
f 11/69/25 25/72/25 13/70/25
f 9/68/25 25/72/25 11/69/25
f 7/67/25 25/72/25 9/68/25
f 5/66/25 25/72/25 7/67/25
f 3/65/25 25/72/25 5/66/25
f 1/73/25 25/72/25 3/65/25
f 33/85/38 37/86/38 36/84/38
f 43/89/38 39/87/38 41/88/38
f 36/84/38 39/87/38 43/89/38
f 36/84/38 37/86/38 39/87/38
f 32/72/25 31/79/25 30/78/25
f 32/72/25 30/78/25 29/77/25
f 32/72/25 29/77/25 28/76/25
f 32/72/25 28/76/25 27/75/25
f 32/72/25 27/75/25 26/74/25
f 32/72/25 26/74/25 31/79/25
f 4/4/4 2/2/2 1/1/1
f 1/1/1 3/3/3 4/4/4
f 6/8/6 4/6/4 3/5/3
f 3/5/3 5/7/5 6/8/6
f 8/12/8 6/10/6 5/9/5
f 5/9/5 7/11/7 8/12/8
f 10/16/10 8/14/8 7/13/7
f 7/13/7 9/15/9 10/16/10
f 12/20/12 10/18/10 9/17/9
f 9/17/9 11/19/11 12/20/12
f 14/24/14 12/22/12 11/21/11
f 11/21/11 13/23/13 14/24/14
f 16/28/16 14/26/14 13/25/13
f 13/25/13 15/27/15 16/28/16
f 2/32/2 16/30/16 15/29/15
f 15/29/15 1/31/1 2/32/2
f 18/36/18 17/34/17 2/33/2
f 2/33/2 4/35/4 18/36/18
f 19/40/19 18/38/18 4/37/4
f 4/37/4 6/39/6 19/40/19
f 20/44/20 19/42/19 6/41/6
f 6/41/6 8/43/8 20/44/20
f 21/48/21 20/46/20 8/45/8
f 8/45/8 10/47/10 21/48/21
f 22/52/22 21/50/21 10/49/10
f 10/49/10 12/51/12 22/52/22
f 23/56/23 22/54/22 12/53/12
f 12/53/12 14/55/14 23/56/23
f 24/60/24 23/58/23 14/57/14
f 14/57/14 16/59/16 24/60/24
f 17/64/17 24/62/24 16/61/16
f 16/61/16 2/63/2 17/64/17
f 36/83/29 35/82/28 34/81/27
f 34/81/27 33/80/26 36/83/29
f 38/81/31 37/80/30 33/83/26
f 33/83/26 34/82/27 38/81/31
f 38/82/31 40/81/33 39/80/32
f 39/80/32 37/83/30 38/82/31
f 40/82/33 42/81/35 41/80/34
f 41/80/34 39/83/32 40/82/33
f 42/82/35 44/81/37 43/80/36
f 43/80/36 41/83/34 42/82/35
f 35/81/28 36/80/29 43/83/36
f 43/83/36 44/82/37 35/81/28
f 27/90/39 46/93/42 45/92/41
f 45/92/41 26/91/40 27/90/39
f 46/93/42 34/81/27 35/82/28
f 35/82/28 45/92/41 46/93/42
f 38/81/31 34/82/27 46/92/42
f 46/92/42 47/93/43 38/81/31
f 28/90/44 47/93/43 46/92/42
f 46/92/42 27/91/39 28/90/44
f 47/92/43 48/93/45 40/81/33
f 40/81/33 38/82/31 47/92/43
f 28/91/44 29/90/46 48/93/45
f 48/93/45 47/92/43 28/91/44
f 48/92/45 49/93/47 42/81/35
f 42/81/35 40/82/33 48/92/45
f 48/92/45 29/91/46 30/90/48
f 30/90/48 49/93/47 48/92/45
f 50/93/49 44/81/37 42/82/35
f 42/82/35 49/92/47 50/93/49
f 31/90/50 50/93/49 49/92/47
f 49/92/47 30/91/48 31/90/50
f 44/82/37 50/92/49 45/93/41
f 45/93/41 35/81/28 44/82/37
f 50/92/49 31/91/50 26/90/40
f 26/90/40 45/93/41 50/92/49
f 52/96/38 51/95/38 17/94/38
f 17/94/38 18/97/38 52/96/38
f 19/99/38 54/98/38 52/96/38
f 52/96/38 18/97/38 19/99/38
f 19/99/38 20/101/38 56/100/38
f 56/100/38 54/98/38 19/99/38
f 21/103/38 58/102/38 56/100/38
f 56/100/38 20/101/38 21/103/38
f 21/103/38 22/105/38 59/104/38
f 59/104/38 58/102/38 21/103/38
f 23/108/38 63/107/38 59/104/38
f 59/104/38 22/105/38 23/108/38
f 23/108/38 24/110/38 65/109/38
f 65/109/38 63/107/38 23/108/38
f 51/95/38 65/109/38 24/110/38
f 24/110/38 17/94/38 51/95/38
f 60/114/51 58/112/51 59/111/51
f 59/111/51 62/113/51 60/114/51
f 62/118/52 59/116/52 63/115/52
f 63/115/52 64/117/52 62/118/52
f 64/122/53 63/120/53 65/119/53
f 65/119/53 66/121/53 64/122/53
f 66/126/54 65/124/54 51/123/54
f 51/123/54 67/125/54 66/126/54
f 67/130/55 51/128/55 52/127/55
f 52/127/55 53/129/55 67/130/55
f 53/134/56 52/132/56 54/131/56
f 54/131/56 55/133/56 53/134/56
f 55/138/57 54/136/57 56/135/57
f 56/135/57 57/137/57 55/138/57
f 57/142/58 56/140/58 58/139/58
f 58/139/58 60/141/58 57/142/58

